<svg height="512pt" viewBox="0 -35 512 512" width="512pt" xmlns="http://www.w3.org/2000/svg"><path d="m205.484375 372.800781h101.03125v55.867188h-101.03125zm0 0" fill="#2c6a9b"/><path d="m205.488281 372.800781h101.023438v17.390625h-101.023438zm0 0" fill="#1a5a84"/><path d="m354.214844 442.4375h-196.429688c-5.144531 0-9.316406-4.171875-9.316406-9.316406 0-5.144532 4.171875-9.316406 9.316406-9.316406h196.429688c5.144531 0 9.3125 4.171874 9.3125 9.316406 0 5.144531-4.167969 9.316406-9.3125 9.316406zm0 0" fill="#dceeef"/><path d="m512 33.472656v331.789063c0 5.8125-4.707031 10.507812-10.519531 10.507812h-490.960938c-5.8125 0-10.519531-4.695312-10.519531-10.503906v-331.792969c0-8.703125 7.066406-15.761718 15.773438-15.761718h480.453124c8.714844 0 15.773438 7.058593 15.773438 15.761718zm0 0" fill="#dceeef"/><path d="m512 33.472656v331.789063c0 5.8125-4.707031 10.507812-10.519531 10.507812h-22.867188c5.808594 0 10.515625-4.695312 10.515625-10.507812v-331.789063c0-8.695312-7.066406-15.761718-15.769531-15.761718h22.867187c8.714844 0 15.773438 7.058593 15.773438 15.761718zm0 0" fill="#bcdde2"/><path d="m512 325.355469v39.90625c0 5.8125-4.707031 10.507812-10.507812 10.507812h-490.984376c-5.800781 0-10.507812-4.695312-10.507812-10.507812v-39.90625zm0 0" fill="#3b7ca8"/><path d="m512 325.355469v39.90625c0 5.8125-4.707031 10.507812-10.507812 10.507812h-22.878907c5.808594 0 10.515625-4.695312 10.515625-10.507812v-39.90625zm0 0" fill="#2c6a9b"/><path d="m512 33.46875v22.5h-512v-22.5c0-8.703125 7.066406-15.761719 15.773438-15.761719h480.453124c8.714844.003907 15.773438 7.058594 15.773438 15.761719zm0 0" fill="#8bc1c6"/><path d="m451.171875 384.4375-46.042969-35.058594c-3.6875-2.804687-8.796875-2.804687-12.484375 0l-46.042969 35.058594c-6.78125 5.164062-16.542968.328125-16.542968-8.195312v-365.941407c0-5.6875 4.613281-10.300781 10.304687-10.300781h117.046875c5.691406 0 10.304688 4.613281 10.304688 10.300781v365.941407c0 8.523437-9.761719 13.359374-16.542969 8.195312zm0 0" fill="#ff5d49"/><path d="m402.9375 236.097656 8.339844 16.902344 18.65625 2.710938c3.703125.535156 5.183594 5.089843 2.5 7.703124l-13.496094 13.15625 3.1875 18.578126c.632812 3.6875-3.242188 6.503906-6.554688 4.761718l-16.683593-8.773437-16.683594 8.773437c-3.3125 1.742188-7.1875-1.074218-6.554687-4.761718l3.1875-18.578126-13.496094-13.15625c-2.683594-2.613281-1.203125-7.167968 2.503906-7.703124l18.652344-2.710938 8.339844-16.902344c1.65625-3.355468 6.445312-3.355468 8.101562 0zm0 0" fill="#ffbf00"/><g fill="#4c94c3"><path d="m76.953125 239.105469h-.472656c-4.269531 0-7.726563-3.460938-7.726563-7.726563 0-4.269531 3.460938-7.726562 7.726563-7.726562h.472656c4.265625 0 7.726563 3.457031 7.726563 7.726562 0 4.265625-3.460938 7.726563-7.726563 7.726563zm0 0"/><path d="m273.382812 238.867188h-171.941406c-4.269531 0-7.726562-3.457032-7.726562-7.726563 0-4.265625 3.460937-7.726563 7.726562-7.726563h171.941406c4.269532 0 7.726563 3.460938 7.726563 7.726563 0 4.269531-3.457031 7.726563-7.726563 7.726563zm0 0"/><path d="m273.382812 285.382812h-196.429687c-4.269531 0-7.726563-3.460937-7.726563-7.726562s3.457032-7.726562 7.726563-7.726562h196.429687c4.269532 0 7.726563 3.460937 7.726563 7.726562s-3.457031 7.726562-7.726563 7.726562zm0 0"/><path d="m273.378906 262.136719h-196.898437c-4.269531 0-7.726563-3.457031-7.726563-7.726563 0-4.265625 3.460938-7.726562 7.726563-7.726562h196.898437c4.269532 0 7.726563 3.460937 7.726563 7.726562 0 4.269532-3.457031 7.726563-7.726563 7.726563zm0 0"/></g><path d="m263.082031 194.738281h-176.300781c-5.6875 0-10.300781-4.609375-10.300781-10.300781v-74.726562c0-5.691407 4.613281-10.304688 10.300781-10.304688h176.300781c5.691407 0 10.300781 4.613281 10.300781 10.304688v74.726562c0 5.691406-4.613281 10.300781-10.300781 10.300781zm0 0" fill="#009af2"/><path d="m273.378906 109.707031v74.726563c0 5.699218-4.605468 10.304687-10.300781 10.304687h-23.933594c5.6875 0 10.304688-4.605469 10.304688-10.304687v-74.726563c0-5.6875-4.617188-10.304687-10.304688-10.304687h23.933594c5.695313 0 10.300781 4.617187 10.300781 10.304687zm0 0" fill="#006fd3"/></svg>