<svg id="Capa_1" enable-background="new 0 0 497 497" height="512" viewBox="0 0 497 497" width="512" xmlns="http://www.w3.org/2000/svg"><path d="m383.5 264.5h-127.5v-30h-15v30h-127.5c-4.142 0-7.5 3.358-7.5 7.5v37.5h15v-30h255v30h15v-37.5c0-4.142-3.358-7.5-7.5-7.5z" fill="#3857bc"/><path d="m227 309.5v37.5l-90 60 60-105h22.5c4.142 0 7.5 3.358 7.5 7.5z" fill="#61ce5a"/><path d="m197 302v105l-197-60v-37.5c0-4.142 3.358-7.5 7.5-7.5z" fill="#94e368"/><path d="m0 347v142.5c0 4.142 3.358 7.5 7.5 7.5h189.5l15-75-15-75z" fill="#c4f3ff"/><path d="m128.5 377h83.5v90h-83.5z" fill="#3a6fd8"/><path d="m197 347v150h22.5c4.142 0 7.5-3.358 7.5-7.5v-142.5z" fill="#8ae7ff"/><path d="m497 309.5v37.5l-90 60 60-105h22.5c4.142 0 7.5 3.358 7.5 7.5z" fill="#61ce5a"/><path d="m467 302v105l-197-60v-37.5c0-4.142 3.358-7.5 7.5-7.5z" fill="#94e368"/><path d="m270 347v142.5c0 4.142 3.358 7.5 7.5 7.5h189.5l15-75-15-75z" fill="#c4f3ff"/><path d="m398.5 377h83.5v90h-83.5z" fill="#3a6fd8"/><path d="m467 347v150h22.5c4.142 0 7.5-3.358 7.5-7.5v-142.5z" fill="#8ae7ff"/><path d="m383.5 0-60 120 90-30v-82.5c0-4.142-3.358-7.5-7.5-7.5z" fill="#3a6fd8"/><path d="m229.99 0-133.49 60v30l30 30h257v-120z" fill="#3b88f5"/><path d="m229.99 0-60 60h-73.49v-52.5c0-4.142 3.358-7.5 7.5-7.5z" fill="#3857bc"/><path d="m383.5 90-120 71.75 120 80.25h22.5c4.142 0 7.5-3.358 7.5-7.5v-144.5z" fill="#8ae7ff"/><path d="m96.5 90v144.5c0 4.142 3.358 7.5 7.5 7.5h279.5v-152z" fill="#c4f3ff"/><circle cx="368.5" cy="45" fill="#94e368" r="15"/><circle cx="308.5" cy="45" fill="#ffd06a" r="15"/><circle cx="248.5" cy="45" fill="#ff3e3a" r="15"/><g fill="#14cfff"><path d="m368.5 384.5h-68.5c-4.142 0-7.5-3.358-7.5-7.5s3.358-7.5 7.5-7.5h68.5c4.142 0 7.5 3.358 7.5 7.5s-3.358 7.5-7.5 7.5z"/><path d="m368.5 414.5h-68.5c-4.142 0-7.5-3.358-7.5-7.5s3.358-7.5 7.5-7.5h68.5c4.142 0 7.5 3.358 7.5 7.5s-3.358 7.5-7.5 7.5z"/><path d="m368.5 444.5h-68.5c-4.142 0-7.5-3.358-7.5-7.5s3.358-7.5 7.5-7.5h68.5c4.142 0 7.5 3.358 7.5 7.5s-3.358 7.5-7.5 7.5z"/><path d="m368.5 474.5h-68.5c-4.142 0-7.5-3.358-7.5-7.5s3.358-7.5 7.5-7.5h68.5c4.142 0 7.5 3.358 7.5 7.5s-3.358 7.5-7.5 7.5z"/><path d="m98.5 384.5h-68.5c-4.142 0-7.5-3.358-7.5-7.5s3.358-7.5 7.5-7.5h68.5c4.142 0 7.5 3.358 7.5 7.5s-3.358 7.5-7.5 7.5z"/><path d="m98.5 414.5h-68.5c-4.142 0-7.5-3.358-7.5-7.5s3.358-7.5 7.5-7.5h68.5c4.142 0 7.5 3.358 7.5 7.5s-3.358 7.5-7.5 7.5z"/><path d="m98.5 444.5h-68.5c-4.142 0-7.5-3.358-7.5-7.5s3.358-7.5 7.5-7.5h68.5c4.142 0 7.5 3.358 7.5 7.5s-3.358 7.5-7.5 7.5z"/><path d="m98.5 474.5h-68.5c-4.142 0-7.5-3.358-7.5-7.5s3.358-7.5 7.5-7.5h68.5c4.142 0 7.5 3.358 7.5 7.5s-3.358 7.5-7.5 7.5z"/></g></svg>