<svg height="496pt" viewBox="0 -1 496 496" width="496pt" xmlns="http://www.w3.org/2000/svg"><path d="m144 438.953125h208v48h-208zm0 0" fill="#838f9b"/><path d="m488 406.953125c0 17.679687-14.320312 32-32 32h-416c-17.679688 0-32-14.320313-32-32v-16h480zm0 0" fill="#969faa"/><path d="m8 390.953125v-272c0-17.679687 14.320312-32 32-32h416c17.679688 0 32 14.320313 32 32v272zm0 0" fill="#aab2bd"/><path d="m448 118.953125c4.398438 0 8 3.597656 8 8v264h-416v-264c0-4.402344 3.601562-8 8-8zm0 0" fill="#69d6f4"/><path d="m232 14.953125v48h-48v-48l24 16zm0 0" fill="#ff826e"/><path d="m344 326.953125c0 17.679687 14.320312 32 32 32h-216c-8.800781 0-16.800781-3.601563-22.640625-9.359375-5.757813-5.839844-9.359375-13.839844-9.359375-22.640625 0-17.679687 14.320312-32 32-32h216c-17.679688 0-32 14.320313-32 32zm0 0" fill="#e6e9ed"/><path d="m160 62.953125v232c-17.679688 0-32 14.320313-32 32v-232c0-2.640625.320312-5.28125.960938-7.761719 3.4375-13.917968 16.078124-24.238281 31.039062-24.238281zm0 0" fill="#b27946"/><path d="m232 62.953125h-72v232h208v-232zm0 0" fill="#cf9e76"/><path d="m192 94.953125h144v80h-144zm0 0" fill="#fcd770"/><path d="m456 78.953125h-80v-24h-136v-54.953125l-32 21.335938-32-21.335938v54.953125h-16c-16.359375 0-30.414062 9.894531-36.609375 24h-83.390625c-22.054688 0-40 17.941406-40 40v288c0 22.054687 17.945312 40 40 40h96v32h-32v16h288v-16h-32v-32h96c22.054688 0 40-17.945313 40-40v-288c0-22.058594-17.945312-40-40-40zm-8 304h-400v-256h72v200c0 22.054687 17.945312 40 40 40h216v-16c-13.230469 0-24-10.769531-24-24 0-13.234375 10.769531-24 24-24v-176h72zm-288-80h184.015625c-3.496094 4.648437-5.910156 10.101563-7.121094 16h-184.894531v16h184.894531c1.210938 5.894531 3.625 11.351563 7.121094 16h-184.015625c-13.230469 0-24-10.769531-24-24 0-13.234375 10.769531-24 24-24zm200-16h-192v-216h192zm-168-257.050781 16 10.664062 16-10.664062v25.050781h-32zm-40 42.523437v215.335938c-5.945312 1.214843-11.328125 3.855469-16 7.390625v-200.199219c0-10.417969 6.710938-19.21875 16-22.527344zm-136 46.527344c0-13.234375 10.769531-24 24-24h80v16h-72c-8.824219 0-16 7.175781-16 16v256h-16zm328 360h-192v-32h192zm136-72c0 13.230469-10.769531 24-24 24h-416c-13.230469 0-24-10.769531-24-24v-8h464zm-16-24v-256c0-8.824219-7.175781-16-16-16h-72v-16h80c13.230469 0 24 10.765625 24 24v264zm0 0"/><path d="m344 86.953125h-160v96h160zm-16 80h-128v-64h128zm0 0"/><path d="m184 198.953125h160v16h-160zm0 0"/><path d="m272 230.953125h72v16h-72zm0 0"/><path d="m184 230.953125h72v16h-72zm0 0"/></svg>